<?xml version="1.0" standalone="no"?>
<!DOCTYPE svg PUBLIC "-//W3C//DTD SVG 20010904//EN"
 "http://www.w3.org/TR/2001/REC-SVG-20010904/DTD/svg10.dtd">
<svg version="1.0" xmlns="http://www.w3.org/2000/svg"
 width="192.000000pt" height="192.000000pt" viewBox="0 0 192.000000 192.000000"
 preserveAspectRatio="xMidYMid meet">
<metadata>
Created by potrace 1.10, written by Peter Selinger 2001-2011
</metadata>
<g transform="translate(0.000000,192.000000) scale(0.100000,-0.100000)"
fill="#000000" stroke="none">
<path d="M805 1856 c-214 -42 -419 -162 -548 -321 -75 -93 -123 -180 -163
-300 -35 -101 -38 -121 -42 -245 -3 -113 -1 -150 17 -223 100 -421 464 -717
883 -717 124 0 215 17 330 61 99 38 131 57 225 127 160 118 267 279 329 489
74 257 17 552 -152 773 -171 226 -418 356 -694 366 -73 2 -140 -1 -185 -10z
m418 -45 c131 -43 262 -119 346 -201 37 -36 70 -74 74 -83 3 -9 11 -17 16 -17
5 0 19 -17 32 -37 128 -214 165 -344 157 -555 -4 -106 -10 -137 -40 -230 -51
-153 -113 -254 -222 -363 -204 -203 -498 -299 -766 -251 -338 61 -601 283
-707 597 -69 206 -71 351 -7 554 100 314 315 512 659 606 57 16 96 18 215 16
131 -3 154 -7 243 -36z"/>
<path d="M875 1811 c-210 -35 -392 -134 -544 -297 -205 -219 -268 -444 -212
-757 26 -144 77 -243 185 -355 183 -191 355 -274 596 -288 402 -24 814 301
896 709 26 126 16 295 -24 414 -87 257 -201 390 -420 490 -160 72 -346 105
-477 84z m282 -85 c313 -101 451 -235 556 -540 29 -86 31 -100 31 -236 0 -162
-12 -223 -69 -346 -100 -217 -260 -351 -491 -409 -205 -53 -443 -20 -615 84
-71 43 -182 139 -248 216 -112 129 -168 322 -157 540 8 183 55 306 170 452 99
124 255 218 431 257 108 24 287 16 392 -18z"/>
<path d="M532 1388 c-18 -18 -17 -662 1 -675 6 -6 52 -15 101 -22 107 -15 182
-42 241 -87 25 -19 47 -34 50 -34 3 0 5 144 5 320 0 355 1 351 -65 408 -48 43
-102 69 -177 87 -77 18 -140 19 -156 3z"/>
<path d="M1228 1384 c-71 -17 -126 -44 -173 -86 -66 -57 -65 -53 -65 -408 0
-176 2 -320 5 -320 3 0 25 15 50 34 59 45 134 72 241 87 49 7 95 16 102 22 17
13 18 657 0 675 -16 16 -88 14 -160 -4z"/>
<path d="M402 1248 c-9 -9 -12 -96 -12 -359 0 -295 2 -348 15 -359 12 -10 29
-10 82 1 73 14 287 19 341 7 76 -17 -1 39 -100 73 -35 12 -90 23 -123 26 -75
6 -112 20 -128 47 -8 14 -14 107 -17 296 -5 266 -6 275 -25 278 -11 1 -26 -3
-33 -10z"/>
<path d="M1467 1253 c-4 -3 -7 -125 -7 -270 0 -335 0 -335 -145 -346 -33 -3
-88 -14 -123 -26 -99 -34 -176 -90 -99 -73 53 12 267 7 340 -7 53 -11 70 -11
82 -1 13 11 15 64 15 359 0 257 -3 350 -12 359 -13 13 -41 16 -51 5z"/>
</g>
</svg>
